<!--?xml version="1.0" standalone="no"?-->
              <svg id="sw-js-blob-svg" viewBox="0 0 100 100" xmlns="http://www.w3.org/2000/svg" version="1.1">
                    <defs> 
                        <linearGradient id="sw-gradient" x1="0" x2="1" y1="1" y2="0">
                            <stop id="stop1" stop-color="rgba(0, 231.165, 141.113, 1)" offset="0%"></stop>
                            <stop id="stop2" stop-color="rgba(31, 251, 113.131, 1)" offset="100%"></stop>
                        </linearGradient>
                    </defs>
                <path fill="url(#sw-gradient)" d="M28.1,-30.9C35.9,-26.9,41.5,-17.6,43.1,-7.8C44.6,2.1,42.1,12.5,36.5,20.1C31,27.8,22.3,32.6,13.5,34.9C4.7,37.2,-4.3,36.8,-11.9,33.6C-19.5,30.5,-25.8,24.5,-28.6,17.5C-31.3,10.6,-30.6,2.7,-29.5,-5.5C-28.4,-13.7,-27,-22.1,-22.1,-26.7C-17.1,-31.2,-8.5,-31.9,0.8,-32.9C10.1,-33.8,20.2,-35,28.1,-30.9Z" width="100%" height="100%" transform="translate(50 50)" stroke-width="0" style="transition: all 0.3s ease 0s;"></path>
              </svg>