<!--?xml version="1.0" standalone="no"?-->
              <svg id="sw-js-blob-svg" viewBox="0 0 100 100" xmlns="http://www.w3.org/2000/svg" version="1.1">
                    <defs> 
                        <linearGradient id="sw-gradient" x1="0" x2="1" y1="1" y2="0">
                            <stop id="stop1" stop-color="rgba(205.978, 152.646, 19.842, 1)" offset="0%"></stop>
                            <stop id="stop2" stop-color="rgba(226.611, 145.637, 17.991, 1)" offset="100%"></stop>
                        </linearGradient>
                    </defs>
                <path fill="url(#sw-gradient)" d="M22.6,-28.5C28.2,-22.3,30.9,-14.1,32.8,-5.5C34.7,3.2,35.8,12.2,32.9,20.4C29.9,28.6,22.8,36,14.6,38C6.5,40,-2.8,36.7,-11.7,33C-20.6,29.4,-29,25.5,-34,18.7C-39,11.9,-40.5,2.3,-38.2,-6C-35.8,-14.2,-29.5,-20.9,-22.5,-26.9C-15.5,-32.9,-7.8,-38.2,0.4,-38.6C8.5,-39.1,17,-34.8,22.6,-28.5Z" width="100%" height="100%" transform="translate(50 50)" stroke-width="0" style="transition: all 0.3s ease 0s;" stroke="url(#sw-gradient)"></path>
              </svg>