<!--?xml version="1.0" standalone="no"?-->
              <svg id="sw-js-blob-svg" viewBox="0 0 100 100" xmlns="http://www.w3.org/2000/svg" version="1.1">
                    <defs> 
                        <linearGradient id="sw-gradient" x1="0" x2="1" y1="1" y2="0">
                            <stop id="stop1" stop-color="rgba(0, 231.165, 141.113, 1)" offset="0%"></stop>
                            <stop id="stop2" stop-color="rgba(31, 251, 113.131, 1)" offset="100%"></stop>
                        </linearGradient>
                    </defs>
                <path fill="url(#sw-gradient)" d="M21.7,-26C28,-20.5,33,-13.6,33.9,-6.3C34.9,1.1,31.8,8.8,28.3,17.5C24.7,26.2,20.6,35.7,13.6,39C6.6,42.2,-3.3,39.1,-13,35.6C-22.8,32.1,-32.4,28.2,-35.7,21.3C-38.9,14.3,-35.7,4.3,-33,-5C-30.4,-14.2,-28.3,-22.8,-22.9,-28.4C-17.5,-34.1,-8.8,-36.9,-0.5,-36.2C7.7,-35.6,15.3,-31.5,21.7,-26Z" width="100%" height="100%" transform="translate(50 50)" stroke-width="0" style="transition: all 0.3s ease 0s;"></path>
              </svg>