<!--?xml version="1.0" standalone="no"?-->
              <svg id="sw-js-blob-svg" viewBox="0 0 100 100" xmlns="http://www.w3.org/2000/svg" version="1.1">
                    <defs> 
                        <linearGradient id="sw-gradient" x1="0" x2="1" y1="1" y2="0">
                            <stop id="stop1" stop-color="rgba(121.551, 181.353, 228.888, 1)" offset="0%"></stop>
                            <stop id="stop2" stop-color="rgba(77.406, 168.146, 240.272, 1)" offset="100%"></stop>
                        </linearGradient>
                    </defs>
                <path fill="url(#sw-gradient)" d="M27,-36.3C34.4,-31.8,39.4,-23.1,40.8,-14.3C42.2,-5.5,39.9,3.4,36.3,11C32.8,18.7,27.9,25.2,21.6,29.7C15.3,34.2,7.7,36.7,-0.5,37.4C-8.6,38,-17.2,36.8,-24.9,32.7C-32.5,28.7,-39.3,21.8,-42.3,13.5C-45.3,5.2,-44.5,-4.5,-40.6,-12.2C-36.7,-19.8,-29.6,-25.4,-22.3,-29.9C-15,-34.5,-7.5,-38.2,1.2,-39.8C9.8,-41.4,19.6,-40.9,27,-36.3Z" width="100%" height="100%" transform="translate(50 50)" stroke-width="0" style="transition: all 0.3s ease 0s;"></path>
              </svg>